#!OML:ASF H:\BabyWalks\Project 1\Capture day 1\Session 1\baby.ASF
:FULLY-SPECIFIED
:DEGREES
756
root 35.8666 17.5517 5.40954 1.37032 43.6948 -7.34565
lowerback 18.884 0.961147 1.05044
upperback 5.95181 1.6006 -0.061783
thorax -4.13024 0.854444 -1.01726
lowerneck -1.01416 0.89841 5.70551
upperneck -8.88115 1.04441 -4.34378
head -2.62138 0.488883 -2.43531
rclavicle 6.75868e-015 -9.93923e-015
rhumerus -53.8607 14.441 -89.6272
rradius 44.6729
rwrist -4.21284
rhand -13.4238 -15.4432
rfingers 7.12502
rthumb 12.6847 -45.038
lclavicle 6.75868e-015 -9.93923e-015
lhumerus -56.7292 -13.3353 85.0351
lradius 51.6601
lwrist -2.22104
lhand 6.63196 11.7755
lfingers 7.12502
lthumb 31.9253 38.9964
rfemur 0.259679 12.3092 24.1566
rtibia 17.1785
rfoot -16.9349 6.1837
rtoes 3.61498
lfemur -25.5755 -1.26502 -12.5066
ltibia 33.7469
lfoot -17.089 -10.6099
ltoes 2.98247
757
root 35.869 17.5518 5.41297 1.36436 43.6956 -7.36069
lowerback 18.8704 0.956711 1.05798
upperback 5.9399 1.59605 -0.055073
thorax -4.13594 0.851896 -1.01328
lowerneck -1.02508 0.90128 5.72387
upperneck -8.90641 1.04288 -4.41344
head -2.62815 0.489372 -2.46255
rclavicle -8.22969e-014 -2.62396e-014
rhumerus -53.9098 14.3276 -89.5826
rradius 44.5074
rwrist -4.1165
rhand -13.3855 -15.507
rfingers 7.12502
rthumb 12.7216 -45.0995
lclavicle -8.22969e-014 -2.62396e-014
lhumerus -56.7505 -13.2964 85.1211
lradius 51.6401
lwrist -2.26129
lhand 6.62583 11.7331
lfingers 7.12502
lthumb 31.9195 38.9552
rfemur 0.312221 12.3024 24.1712
rtibia 17.0887
rfoot -16.9053 6.19082
rtoes 3.61337
lfemur -25.572 -1.27825 -12.491
ltibia 33.7614
lfoot -17.1123 -10.5917
ltoes 2.96253
758
root 35.8715 17.5519 5.41645 1.35701 43.691 -7.37272
lowerback 18.8555 0.955467 1.06402
upperback 5.92904 1.59533 -0.049255
thorax -4.1398 0.851256 -1.01019
lowerneck -1.03853 0.902669 5.72787
upperneck -8.92027 1.04068 -4.46092
head -2.63057 0.489374 -2.4794
rclavicle -5.56597e-015 1.59028e-015
rhumerus -53.957 14.218 -89.543
rradius 44.338
rwrist -4.01114
rhand -13.3459 -15.5706
rfingers 7.12502
rthumb 12.7597 -45.1607
lclavicle -5.56597e-015 1.59028e-015
lhumerus -56.7693 -13.2725 85.2224
lradius 51.6168
lwrist -2.29044
lhand 6.63313 11.6945
lfingers 7.12502
lthumb 31.9264 38.9151
rfemur 0.367629 12.2952 24.1838
rtibia 17.0009
rfoot -16.8748 6.2032
rtoes 3.60618
lfemur -25.5602 -1.29122 -12.4775
ltibia 33.7717
lfoot -17.1343 -10.5694
ltoes 2.94567
759
root 35.8741 17.552 5.41996 1.35053 43.681 -7.37743
lowerback 18.8401 0.956579 1.06381
upperback 5.91916 1.59647 -0.0446844
thorax -4.14242 0.851547 -1.00525
lowerneck -1.04808 0.902029 5.71812
upperneck -8.92674 1.03726 -4.48736
head -2.63122 0.488662 -2.4865
rclavicle 1.74931e-014 -8.34896e-015
rhumerus -54.0029 14.1177 -89.5103
rradius 44.1683
rwrist -3.89721
rhand -13.3038 -15.6342
rfingers 7.12502
rthumb 12.8003 -45.2218
lclavicle 1.74931e-014 -8.34896e-015
lhumerus -56.7873 -13.2577 85.3358
lradius 51.5918
lwrist -2.30724
lhand 6.65053 11.6632
lfingers 7.12502
lthumb 31.943 38.8806
rfemur 0.425402 12.2874 24.1912
rtibia 16.9176
rfoot -16.8446 6.22108
rtoes 3.60184
lfemur -25.5385 -1.30451 -12.4695
ltibia 33.7763
lfoot -17.1558 -10.5411
ltoes 2.92483
760
root 35.8766 17.5523 5.42355 1.3446 43.6651 -7.37547
lowerback 18.8251 0.961472 1.05863
upperback 5.90931 1.60155 -0.0415308
thorax -4.14523 0.853764 -0.999862
lowerneck -1.04736 0.897792 5.70272
upperneck -8.9298 1.03035 -4.5006
head -2.63275 0.486081 -2.48811
rclavicle -7.59357e-014 1.07344e-014
rhumerus -54.0468 14.0223 -89.4826
rradius 43.9979
rwrist -3.77476
rhand -13.2538 -15.6968
rfingers 7.12502
rthumb 12.8485 -45.2813
lclavicle -7.59357e-014 1.07344e-014
lhumerus -56.8038 -13.2556 85.4602
lradius 51.5653
lwrist -2.31438
lhand 6.67929 11.6383
lfingers 7.12502
lthumb 31.9704 38.8502
rfemur 0.48449 12.2805 24.1941
rtibia 16.8401
rfoot -16.8144 6.24403
rtoes 3.60166
lfemur -25.5066 -1.31849 -12.4658
ltibia 33.7748
lfoot -17.1757 -10.5072
ltoes 2.90907
